<?xml version="1.0" encoding="UTF-8" standalone="no"?>
<!-- Created with Inkscape (http://www.inkscape.org/) -->

<svg
   width="184.21071mm"
   height="179.52371mm"
   viewBox="0 0 184.21071 179.52371"
   version="1.1"
   id="svg1"
   xml:space="preserve"
   xmlns="http://www.w3.org/2000/svg"
   xmlns:svg="http://www.w3.org/2000/svg"><defs
     id="defs1" /><g
     id="layer1"
     transform="translate(-13.919629,-59.765462)"><path
       style="fill:#000000"
       d="m 99.505415,239.24046 c -22.45139,-1.78505 -43.27367,-10.98544 -58.57566,-25.88185 -17.55317,-17.08791 -27.01894,-39.25449 -27.01012,-63.25129 0.006,-15.06384 3.64511,-29.18521 11.02773,-42.78697 10.43062,-19.217423 28.0966,-34.33596 48.95741,-41.897722 15.35268,-5.565141 31.938535,-7.060903 47.957945,-4.324992 4.59455,0.784692 10.78099,2.412079 15.35958,4.040446 33.2767,11.834815 56.51653,40.932438 60.46747,75.708828 0.53009,4.66584 0.59218,13.26657 0.1299,17.99166 -0.81064,8.28562 -3.14932,17.7218 -6.09845,24.60625 -0.31169,0.72761 -0.7643,1.79917 -1.00579,2.38125 -0.763,1.83906 -3.48451,7.04264 -5.12003,9.78959 -4.55116,7.6439 -11.99797,16.37341 -18.88581,22.13882 -11.51977,9.64254 -26.47061,16.74963 -41.65716,19.8023 -6.34841,1.27611 -9.68523,1.60824 -17.08034,1.70012 -3.92906,0.0488 -7.73906,0.0414 -8.466675,-0.0164 z m 18.785425,-4.59475 c 13.87739,-2.0897 24.86341,-6.0578 36.23938,-13.08949 4.41457,-2.72874 10.71036,-7.5857 14.385,-11.0975 1.64635,-1.57339 5.6223,-6.2517 7.89259,-9.28681 3.03783,-4.06124 8.39297,-12.88019 10.16876,-16.7461 2.84253,-6.18822 5.2769,-14.67247 6.44376,-22.4578 1.72296,-11.49556 0.59178,-25.47696 -2.9489,-36.44859 -1.19582,-3.70551 -5.05022,-12.57362 -7.13784,-16.42251 C 177.1683,97.730067 168.09752,87.574277 157.40405,80.065793 144.95184,71.322398 132.37672,66.437157 116.96792,64.356968 c -4.82281,-0.65108 -16.86061,-0.661835 -21.664475,-0.01936 -16.48443,2.204665 -29.79391,7.486539 -42.34274,16.803729 -6.79443,5.04469 -13.22581,11.46258 -18.0716,18.03369 -6.51633,8.836433 -11.93063,20.249823 -14.45578,30.472913 -3.23947,13.11498 -3.36603,25.71832 -0.39011,38.84793 2.68789,11.85884 7.72646,22.57932 14.9845,31.88229 10.08076,12.92097 20.44215,20.92872 36.29958,28.05396 7.04947,3.16754 17.55452,5.80887 26.72291,6.71905 4.316845,0.42855 15.970705,0.13752 20.240635,-0.50546 z M 97.256455,205.54566 c -6.12886,-0.43591 -14.1936,-1.79223 -20.5052,-3.44854 -16.92659,-4.44194 -31.41556,-12.34697 -41.28739,-22.52595 -3.447,-3.55425 -4.72184,-5.10081 -6.73035,-8.16489 -3.17485,-4.84336 -5.36679,-10.07816 -6.65847,-15.90175 -0.87633,-3.95096 -0.8755,-11.2434 0.002,-15.39127 2.96032,-13.99735 12.79921,-26.13533 28.48072,-35.13593 21.01363,-12.061023 46.52979,-16.990593 71.040625,-13.724613 8.77953,1.16983 15.47019,2.8643 24.20938,6.13122 29.17367,10.905843 46.38674,31.538693 44.58073,53.437753 -0.90065,10.92106 -5.64755,20.61956 -14.36976,29.35919 -13.17014,13.19644 -34.49594,22.4483 -57.58992,24.98444 -4.2141,0.46279 -16.82716,0.68937 -21.172095,0.38034 z m 19.577295,-3.60093 c 22.45496,-1.98287 43.77288,-11.0408 56.89757,-24.17561 3.69032,-3.69317 6.18771,-6.89082 8.17695,-10.46973 5.26922,-9.48004 6.58353,-18.74403 4.08358,-28.78322 -2.45372,-9.85352 -10.06488,-19.78515 -21.16677,-27.62007 -10.01287,-7.06637 -23.5628,-12.666863 -37.00924,-15.296773 -7.63823,-1.49392 -12.80813,-1.98038 -21.03437,-1.97925 -15.051275,0.002 -27.914495,2.46873 -41.671885,7.991003 -18.16955,7.29333 -30.83626,17.702 -36.75249,30.20081 -1.42916,3.01927 -2.71786,7.0657 -3.21473,10.09399 -0.6624,4.03716 -0.40846,10.7119 0.54812,14.40686 4.06833,15.71472 16.42357,28.38457 36.26953,37.1931 16.56922,7.35416 35.02168,10.19192 54.873735,8.43889 z M 97.256455,190.17886 c -12.49156,-1.08222 -24.73096,-4.39717 -34.73677,-9.40819 -14.42436,-7.22387 -23.17072,-17.18082 -25.19213,-28.67897 -1.822,-10.36389 3.35996,-21.15532 14.07251,-29.30603 1.19102,-0.90619 2.58387,-1.89447 3.09523,-2.19618 l 0.92975,-0.54856 0.67508,1.33221 c 0.3713,0.73272 0.67509,1.38183 0.67509,1.44246 0,0.0606 -1.0239,0.85414 -2.27534,1.76337 -2.70432,1.96482 -6.85352,5.87144 -8.47736,7.98174 -1.94863,2.53239 -3.53209,5.45997 -4.54259,8.39852 -0.93726,2.72561 -0.96237,2.90091 -0.96939,6.76685 -0.006,3.30114 0.0922,4.33177 0.58352,6.12681 4.4257,16.16846 25.11849,29.09037 52.06136,32.51044 11.473815,1.45646 24.284985,0.79596 36.308875,-1.87197 4.17227,-0.92576 12.4931,-3.71735 16.04935,-5.38446 1.58462,-0.74284 3.02295,-1.35062 3.19629,-1.35062 0.17334,0 0.6952,0.5292 1.1597,1.176 l 0.84453,1.17599 -1.13041,0.66058 c -1.6839,0.98403 -6.23889,2.87706 -10.12652,4.20852 -6.63296,2.27171 -13.86565,3.88182 -21.69556,4.82979 -4.09342,0.4956 -16.48285,0.72018 -20.505215,0.3717 z m 57.697715,-9.50283 c -1.99088,-0.73805 -3.69559,-2.25765 -4.64014,-4.13628 -1.56058,-3.10388 -0.90714,-7.26 1.52361,-9.69076 0.51681,-0.51681 1.63364,-1.27987 2.48185,-1.69569 1.31886,-0.64655 1.8487,-0.75388 3.65885,-0.74118 3.18814,0.0224 5.49248,1.20785 7.10337,3.65434 2.84338,4.31832 1.24165,10.10526 -3.41037,12.32143 -1.85351,0.88299 -4.77455,1.00829 -6.71717,0.28814 z m 10.76702,-14.36106 -0.93456,-1.14051 0.63961,-0.78669 c 4.72922,-5.81671 7.0081,-13.66878 5.83394,-20.10128 -1.00723,-5.51802 -3.51409,-10.0119 -8.25476,-14.79781 -14.77632,-14.91733 -43.03416,-22.31893 -71.335775,-18.68504 -5.59868,0.71886 -11.12431,1.86816 -17.35096,3.60891 -0.47747,0.13348 -0.64797,7.9e-4 -0.96068,-0.74764 -0.87959,-2.10514 -0.95734,-1.96175 1.46122,-2.69494 8.86002,-2.68593 17.76168,-4.03247 28.390365,-4.29456 16.96193,-0.41826 31.95937,2.53151 45.29891,8.90962 16.48547,7.88228 25.6393,18.67968 26.43446,31.18076 0.28123,4.42134 -0.86837,9.20783 -3.37621,14.05716 -1.25929,2.43505 -4.0263,6.35259 -4.6195,6.54029 -0.16033,0.0507 -0.71205,-0.42099 -1.22606,-1.04827 z m -64.33443,0.0703 c -6.641815,-1.78993 -11.756345,-6.89285 -13.545905,-13.51514 -0.70436,-2.60649 -0.64638,-6.98979 0.12564,-9.49829 2.02286,-6.57284 6.42376,-10.97977 12.994135,-13.01196 1.60226,-0.49558 2.5703,-0.61173 5.02709,-0.60321 3.58743,0.0124 5.45521,0.44907 8.73125,2.04111 3.0686,1.49125 6.29964,4.66518 7.86519,7.7262 1.73376,3.38993 2.04918,4.7604 2.03995,8.86354 -0.007,3.30346 -0.0694,3.74607 -0.82505,5.88995 -1.04396,2.96196 -2.19617,4.87273 -4.1853,6.94071 -2.55072,2.65182 -6.01104,4.59016 -9.65729,5.40965 -1.95932,0.44035 -6.51405,0.31144 -8.56971,-0.24256 z M 62.331465,124.34334 c -1.47342,-0.48484 -2.85963,-1.37381 -3.89679,-2.499 -2.68699,-2.91505 -2.48981,-7.57665 0.4446,-10.51107 3.85514,-3.85514 10.38645,-2.78927 12.74003,2.07909 0.81396,1.68367 0.84386,4.68738 0.0639,6.41362 -1.29488,2.8657 -3.71139,4.50932 -6.83815,4.65106 -1.01865,0.0462 -2.14974,-0.014 -2.51354,-0.1337 z"
       id="path1" /></g></svg>
